<svg width="24" height="24" viewBox="0 0 24 24" fill="none" xmlns="http://www.w3.org/2000/svg">
<path d="M12 13.4L9.08314 16.325C8.89874 16.5083 8.66405 16.6 8.37907 16.6C8.09409 16.6 7.85939 16.5083 7.67499 16.325C7.49166 16.1417 7.39999 15.9083 7.39999 15.625C7.39999 15.3417 7.49166 15.1083 7.67499 14.925L10.6 12L7.67499 9.1082C7.49166 8.92378 7.39999 8.68908 7.39999 8.4041C7.39999 8.1191 7.49166 7.8844 7.67499 7.7C7.85833 7.51667 8.09166 7.425 8.37499 7.425C8.65833 7.425 8.89166 7.51667 9.07499 7.7L12 10.625L14.8918 7.7C15.0762 7.51667 15.3109 7.425 15.5959 7.425C15.8809 7.425 16.1156 7.51667 16.3 7.7C16.5 7.9 16.6 8.1375 16.6 8.4125C16.6 8.6875 16.5 8.91667 16.3 9.1L13.375 12L16.3 14.9169C16.4833 15.1013 16.575 15.3359 16.575 15.6209C16.575 15.9059 16.4833 16.1406 16.3 16.325C16.1 16.525 15.8625 16.625 15.5875 16.625C15.3125 16.625 15.0833 16.525 14.9 16.325L12 13.4Z" fill="white"/>
</svg>
