<svg xmlns="http://www.w3.org/2000/svg" width="16" height="16" fill="none">
    <path fill="#212529" d="M3.206.047a.82.82 0 0 0-.515.578c-.022.106-.035.834-.035 2.169v2.01l-.24.015c-.391.025-.716.228-.882.547-.03.068-.393 1.325-.796 2.793L0 10.83l.006 2.296c.01 2.287.01 2.297.078 2.422a.993.993 0 0 0 .385.378c.106.056.353.06 7.531.06h7.422l.125-.07a.994.994 0 0 0 .378-.384c.056-.103.06-.234.069-2.403l.01-2.297-.742-2.672c-.403-1.468-.762-2.725-.796-2.793-.166-.32-.491-.522-.878-.547l-.241-.016-.01-2.097c-.009-2.315 0-2.193-.212-2.437a1.072 1.072 0 0 0-.231-.185l-.128-.068-4.72-.007C4.054.003 3.31.01 3.207.047Zm9.503.56.088.074.01 4.722.005 4.722h-.837c-.969 0-1.084.019-1.303.222-.172.16-.238.297-.269.581-.04.375-.206.619-.506.744-.172.072-3.622.072-3.794 0-.3-.125-.465-.369-.506-.744-.031-.284-.097-.422-.269-.581-.219-.203-.334-.222-1.303-.222h-.838l.007-4.722.01-4.722.087-.075.087-.075h9.244l.087.075ZM2.656 7.733v2.391H1.7c-.894 0-.953-.003-.938-.056.01-.028.285-1.031.616-2.225.328-1.194.622-2.213.65-2.26.081-.14.272-.24.466-.24h.162v2.39Zm11.131-2.321a.62.62 0 0 1 .182.165c.031.05.325 1.072.653 2.266.331 1.194.606 2.197.616 2.225.015.053-.044.056-.938.056h-.956V5.344h.16c.105 0 .2.022.284.069Zm-8.88 5.284c.1.05.143.147.184.422.09.606.534 1.04 1.143 1.131.288.04 3.244.04 3.532 0a1.37 1.37 0 0 0 .78-.387c.204-.21.317-.441.363-.744.041-.275.082-.372.185-.422.062-.031.531-.038 2.15-.031l2.075.006.075.087.075.088V15.287l-.09.091-.091.09H.713l-.091-.09-.09-.09v-2.216c0-2.403-.007-2.316.168-2.384.034-.016.981-.029 2.097-.029 1.565-.003 2.05.007 2.11.038Z"/>
    <path fill="#212529" d="M4.422 2.163c-.16.084-.194.306-.069.425l.072.068h7.159l.066-.072c.069-.071.09-.212.05-.318-.056-.144.028-.141-3.706-.141-2.481.003-3.528.013-3.572.038ZM4.35 4.353a.264.264 0 0 0 .013.369l.08.075H11.557l.082-.075c.106-.1.112-.275.009-.372l-.072-.069H4.416l-.066.072ZM4.362 6.472c-.1.081-.112.262-.021.375l.059.075h7.2l.06-.075c.09-.113.078-.294-.023-.375-.084-.066-.09-.066-3.637-.066s-3.553 0-3.638.066ZM4.36 8.61a.24.24 0 0 0-.079.187.24.24 0 0 0 .078.187l.075.079h4.72l.084-.075c.065-.057.087-.1.087-.191 0-.09-.022-.135-.087-.19l-.085-.076H4.434l-.075.078ZM6.037 12.894a.781.781 0 0 0-.196 1.262c.253.253.225.25 2.159.25 1.934 0 1.906.003 2.16-.25a.792.792 0 0 0-.141-1.234l-.153-.094-1.832-.01-1.83-.005-.167.08Zm3.738.512a.26.26 0 0 1-.056.428c-.113.057-3.325.057-3.438 0a.26.26 0 0 1-.056-.428c.066-.062.103-.062 1.775-.062s1.71 0 1.775.062Z"/>
</svg>
