<svg width="80" height="16" viewBox="0 0 80 16" fill="none" xmlns="http://www.w3.org/2000/svg">
<g clip-path="url(#clip0_1_2)">
<path d="M7.89791 14.8285C12.2598 14.8285 15.7958 11.5091 15.7958 7.41427C15.7958 3.31948 12.2598 1.75304e-07 7.89791 0C3.53601 -1.75304e-07 1.80986e-07 3.31948 0 7.41427C-1.80986e-07 11.5091 3.53601 14.8285 7.89791 14.8285Z" fill="#D92C04"/>
<path d="M26.1792 3.27711C27.1773 3.27711 28.009 3.58811 28.6744 4.21012C29.3499 4.83213 29.6876 5.60493 29.6876 6.52851C29.6876 7.44268 29.3499 8.21548 28.6744 8.84691C28.009 9.46892 27.1773 9.77992 26.1792 9.77992H24.0167V13.1727H22.2776V3.27711H26.1792ZM26.1792 8.25317C26.6934 8.25317 27.1168 8.09296 27.4495 7.77253C27.7822 7.44268 27.9485 7.02801 27.9485 6.52851C27.9485 6.02902 27.7822 5.61906 27.4495 5.29863C27.1168 4.96878 26.6934 4.80386 26.1792 4.80386H24.0167V8.25317H26.1792Z" fill="black"/>
<path d="M31.8454 10.2888C31.9664 10.826 32.2436 11.2407 32.6771 11.5329C33.1107 11.8156 33.6399 11.9569 34.265 11.9569C35.132 11.9569 35.7823 11.6648 36.2158 11.0805L37.5617 11.8156C36.8157 12.8428 35.7117 13.3565 34.2499 13.3565C33.0199 13.3565 32.0269 13.0078 31.2708 12.3104C30.5146 11.6035 30.1366 10.7129 30.1366 9.63855C30.1366 8.58303 30.5096 7.70185 31.2556 6.99502C32.0017 6.27877 32.9594 5.92064 34.1289 5.92064C35.2379 5.92064 36.1452 6.28348 36.851 7.00916C37.5668 7.73483 37.9247 8.61601 37.9247 9.65269C37.9247 9.81291 37.9045 10.025 37.8642 10.2888H31.8454ZM31.8303 9.04482H36.2763C36.1654 8.46993 35.9083 8.03641 35.5051 7.74426C35.1119 7.4521 34.6481 7.30602 34.1138 7.30602C33.5089 7.30602 33.0048 7.46153 32.6015 7.77253C32.1983 8.08353 31.9412 8.50763 31.8303 9.04482Z" fill="black"/>
<path d="M45.7203 11.7308H46.7335V15.067H45.1305V13.1727H39.9435V15.067H38.3405V11.7308H39.263C39.7267 11.1182 39.9586 10.2653 39.9586 9.17205V6.10442H45.7203V11.7308ZM41.0626 11.7308H44.1173V7.50394H41.5616V9.17205C41.5616 10.1805 41.3953 11.0334 41.0626 11.7308Z" fill="black"/>
<path d="M51.3337 13.3565C50.1945 13.3565 49.2417 12.9983 48.4755 12.2821C47.7194 11.5658 47.3413 10.6847 47.3413 9.63855C47.3413 8.58303 47.7194 7.70185 48.4755 6.99502C49.2417 6.27877 50.1945 5.92064 51.3337 5.92064C52.0696 5.92064 52.7401 6.08557 53.345 6.41542C53.9499 6.74527 54.4035 7.18822 54.706 7.74426L53.2996 8.50763C53.1282 8.16835 52.8661 7.90447 52.5132 7.71598C52.1705 7.51807 51.7722 7.41912 51.3186 7.41912C50.6532 7.41912 50.0936 7.63116 49.64 8.05526C49.1964 8.47936 48.9746 9.00712 48.9746 9.63855C48.9746 10.27 49.1964 10.7978 49.64 11.2218C50.0936 11.6459 50.6532 11.858 51.3186 11.858C51.7621 11.858 52.1604 11.759 52.5132 11.5611C52.8762 11.3632 53.1484 11.0993 53.3298 10.7695L54.7362 11.5187C54.4136 12.0842 53.9499 12.5318 53.345 12.8617C52.7401 13.1915 52.0696 13.3565 51.3337 13.3565Z" fill="black"/>
<path d="M61.6197 6.10442V7.57462H59.1547V13.1727H57.5215V7.57462H55.0414V6.10442H61.6197Z" fill="black"/>
<path d="M68.4179 6.10442H70.0512V13.1727H68.4179V12.1549C67.803 12.9559 66.9208 13.3565 65.7715 13.3565C64.7331 13.3565 63.8459 12.9983 63.11 12.2821C62.374 11.5564 62.006 10.6752 62.006 9.63855C62.006 8.59245 62.374 7.71127 63.11 6.99502C63.8459 6.27877 64.7331 5.92064 65.7715 5.92064C66.9208 5.92064 67.803 6.31647 68.4179 7.10811V6.10442ZM64.3198 11.2643C64.7734 11.6884 65.343 11.9004 66.0286 11.9004C66.7141 11.9004 67.2838 11.6884 67.7374 11.2643C68.1911 10.8307 68.4179 10.2888 68.4179 9.63855C68.4179 8.98827 68.1911 8.45108 67.7374 8.02699C67.2838 7.59347 66.7141 7.37671 66.0286 7.37671C65.343 7.37671 64.7734 7.59347 64.3198 8.02699C63.8661 8.45108 63.6392 8.98827 63.6392 9.63855C63.6392 10.2888 63.8661 10.8307 64.3198 11.2643Z" fill="black"/>
<path d="M76.2345 5.92064C77.2729 5.92064 78.1601 6.28348 78.8961 7.00916C79.632 7.72541 80 8.60187 80 9.63855C80 10.6847 79.632 11.5658 78.8961 12.2821C78.1601 12.9983 77.2729 13.3565 76.2345 13.3565C75.0852 13.3565 74.203 12.9606 73.5881 12.169V16H71.9548V6.10442H73.5881V7.12225C74.203 6.32118 75.0852 5.92064 76.2345 5.92064ZM74.2686 11.2643C74.7222 11.6884 75.2919 11.9004 75.9774 11.9004C76.663 11.9004 77.2326 11.6884 77.6863 11.2643C78.1399 10.8307 78.3668 10.2888 78.3668 9.63855C78.3668 8.98827 78.1399 8.45108 77.6863 8.02699C77.2326 7.59347 76.663 7.37671 75.9774 7.37671C75.2919 7.37671 74.7222 7.59347 74.2686 8.02699C73.8149 8.45108 73.5881 8.98827 73.5881 9.63855C73.5881 10.2888 73.8149 10.8307 74.2686 11.2643Z" fill="black"/>
</g>
<defs>
<clipPath id="clip0_1_2">
<rect width="80" height="16" fill="white"/>
</clipPath>
</defs>
</svg>
