<svg width="128" height="42" viewBox="0 0 128 42" fill="none" xmlns="http://www.w3.org/2000/svg">
<path d="M8.48535 1.77684V10.9936H5.95918V8.67624H4.56006L3.07026 10.9936H0.375687L2.21526 8.2944C1.61071 8.02228 1.14866 7.63168 0.829102 7.12256C0.509552 6.60467 0.349778 5.99021 0.349778 5.2792C0.349778 4.55942 0.513871 3.93619 0.842057 3.40952C1.17024 2.88285 1.64093 2.47906 2.25412 2.19817C2.8673 1.91729 3.58415 1.77684 4.40461 1.77684H8.48535ZM4.45643 3.83086C3.44596 3.83086 2.94072 4.30048 2.94072 5.2397C2.94072 5.70493 3.06595 6.06043 3.3164 6.30621C3.5755 6.54322 3.94688 6.66172 4.43052 6.66172H5.95918V3.83086H4.45643ZM14.7079 3.73869C15.3469 3.73869 15.9256 3.89231 16.4438 4.19953C16.9706 4.49798 17.3851 4.92809 17.6875 5.48987C17.9984 6.04288 18.1538 6.68805 18.1538 7.42539C18.1538 8.16273 17.9984 8.81229 17.6875 9.37408C17.3851 9.92708 16.9706 10.3572 16.4438 10.6644C15.9256 10.9629 15.3469 11.1121 14.7079 11.1121C13.8873 11.1121 13.2353 10.8619 12.7517 10.3616V13.5479H10.2903V3.85719H12.6351V4.5682C13.0928 4.01519 13.7837 3.73869 14.7079 3.73869ZM14.1897 9.12391C14.6215 9.12391 14.9755 8.97469 15.252 8.67624C15.5283 8.36902 15.6665 7.95206 15.6665 7.42539C15.6665 6.89872 15.5283 6.48616 15.252 6.18771C14.9755 5.88049 14.6215 5.72688 14.1897 5.72688C13.7578 5.72688 13.4037 5.88049 13.1274 6.18771C12.851 6.48616 12.7128 6.89872 12.7128 7.42539C12.7128 7.95206 12.851 8.36902 13.1274 8.67624C13.4037 8.97469 13.7578 9.12391 14.1897 9.12391ZM22.7947 11.1121C22.0433 11.1121 21.3654 10.9541 20.7608 10.638C20.1562 10.3221 19.6813 9.8832 19.3358 9.32141C18.999 8.75962 18.8306 8.12323 18.8306 7.41222C18.8306 6.71 18.999 6.07799 19.3358 5.51621C19.6813 4.95442 20.1519 4.51992 20.7479 4.21269C21.3524 3.89669 22.0347 3.73869 22.7947 3.73869C23.5548 3.73869 24.237 3.89669 24.8416 4.21269C25.4461 4.51992 25.9168 4.95442 26.2536 5.51621C26.5904 6.06921 26.7589 6.70122 26.7589 7.41222C26.7589 8.12323 26.5904 8.75962 26.2536 9.32141C25.9168 9.8832 25.4461 10.3221 24.8416 10.638C24.237 10.9541 23.5548 11.1121 22.7947 11.1121ZM22.7947 9.12391C23.2265 9.12391 23.5807 8.97469 23.857 8.67624C24.1333 8.36902 24.2715 7.94768 24.2715 7.41222C24.2715 6.88555 24.1333 6.473 23.857 6.17455C23.5807 5.8761 23.2265 5.72688 22.7947 5.72688C22.3629 5.72688 22.0088 5.8761 21.7324 6.17455C21.4561 6.473 21.3179 6.88555 21.3179 7.41222C21.3179 7.94768 21.4561 8.36902 21.7324 8.67624C22.0088 8.97469 22.3629 9.12391 22.7947 9.12391ZM31.4369 11.1121C30.6596 11.1121 29.9644 10.9541 29.3512 10.638C28.738 10.3221 28.2587 9.8832 27.9132 9.32141C27.5764 8.75962 27.408 8.12323 27.408 7.41222C27.408 6.70122 27.5764 6.06921 27.9132 5.51621C28.2587 4.95442 28.738 4.51992 29.3512 4.21269C29.9644 3.89669 30.6596 3.73869 31.4369 3.73869C32.2315 3.73869 32.9181 3.91424 33.4967 4.26536C34.0754 4.6077 34.4856 5.08609 34.7274 5.70054L32.8231 6.68805C32.5036 6.04726 32.0372 5.72688 31.4239 5.72688C30.9835 5.72688 30.6165 5.8761 30.3228 6.17455C30.0378 6.473 29.8953 6.88555 29.8953 7.41222C29.8953 7.94768 30.0378 8.36902 30.3228 8.67624C30.6165 8.97469 30.9835 9.12391 31.4239 9.12391C32.0372 9.12391 32.5036 8.80352 32.8231 8.16273L34.7274 9.15024C34.4856 9.7647 34.0754 10.2475 33.4967 10.5985C32.9181 10.9409 32.2315 11.1121 31.4369 11.1121ZM42.8573 3.85719V10.9936H40.3959V5.84538H38.6211L38.5693 6.93822C38.5348 7.86868 38.4441 8.63674 38.2972 9.24241C38.1504 9.84808 37.9086 10.3221 37.5718 10.6644C37.2349 10.998 36.773 11.1647 36.1856 11.1647C35.8834 11.1647 35.4861 11.1077 34.9938 10.9936L35.0974 8.95274C35.2529 8.97029 35.3565 8.97907 35.4083 8.97907C35.6761 8.97907 35.8791 8.89129 36.0172 8.71574C36.1554 8.54018 36.2504 8.30757 36.3022 8.0179C36.354 7.71945 36.3886 7.32444 36.4058 6.83289L36.5095 3.85719H42.8573ZM47.3745 3.73869C48.5404 3.73869 49.43 4.01081 50.0432 4.55503C50.6563 5.09048 50.963 5.9156 50.963 7.03039V10.9936H48.67V10.0719C48.3159 10.7654 47.6249 11.1121 46.5972 11.1121C46.0531 11.1121 45.5825 11.0155 45.1852 10.8224C44.7878 10.6293 44.4856 10.3704 44.2783 10.0456C44.0797 9.71203 43.9804 9.33458 43.9804 8.91324C43.9804 8.23735 44.2352 7.71506 44.7447 7.34639C45.2542 6.96894 46.0402 6.78022 47.1025 6.78022H48.5016C48.4584 6.02533 47.9617 5.64787 47.0118 5.64787C46.6749 5.64787 46.3338 5.70493 45.9883 5.81904C45.6429 5.92438 45.3493 6.0736 45.1074 6.26671L44.2783 4.5682C44.667 4.30486 45.1376 4.10297 45.6904 3.96252C46.2517 3.8133 46.8132 3.73869 47.3745 3.73869ZM47.2838 9.53208C47.5688 9.53208 47.8192 9.46186 48.0352 9.32141C48.2511 9.18096 48.4066 8.97469 48.5016 8.70257V8.08373H47.4393C46.7225 8.08373 46.364 8.32512 46.364 8.80791C46.364 9.02736 46.446 9.20291 46.6102 9.33458C46.7743 9.46625 46.9988 9.53208 47.2838 9.53208ZM58.1049 7.25422C58.9081 7.52634 59.3097 8.08812 59.3097 8.93957C59.3097 9.58036 59.0635 10.0851 58.5713 10.4538C58.079 10.8137 57.3535 10.9936 56.3949 10.9936H52.4437V3.85719H56.2135C57.129 3.85719 57.8372 4.01958 58.3381 4.34436C58.8477 4.66915 59.1024 5.12559 59.1024 5.71371C59.1024 6.05605 59.0161 6.35888 58.8433 6.62222C58.6706 6.88555 58.4245 7.09622 58.1049 7.25422ZM54.646 6.72755H55.9933C56.5633 6.72755 56.8483 6.5125 56.8483 6.08238C56.8483 5.66982 56.5633 5.46354 55.9933 5.46354H54.646V6.72755ZM56.1746 9.37408C56.7706 9.37408 57.0685 9.15463 57.0685 8.71574C57.0685 8.27685 56.7792 8.0574 56.2006 8.0574H54.646V9.37408H56.1746ZM64.0767 11.1121C63.2994 11.1121 62.6043 10.9541 61.991 10.638C61.3779 10.3221 60.8985 9.8832 60.553 9.32141C60.2162 8.75962 60.0478 8.12323 60.0478 7.41222C60.0478 6.70122 60.2162 6.06921 60.553 5.51621C60.8985 4.95442 61.3779 4.51992 61.991 4.21269C62.6043 3.89669 63.2994 3.73869 64.0767 3.73869C64.8713 3.73869 65.558 3.91424 66.1365 4.26536C66.7152 4.6077 67.1255 5.08609 67.3672 5.70054L65.4629 6.68805C65.1434 6.04726 64.677 5.72688 64.0638 5.72688C63.6233 5.72688 63.2563 5.8761 62.9626 6.17455C62.6776 6.473 62.5351 6.88555 62.5351 7.41222C62.5351 7.94768 62.6776 8.36902 62.9626 8.67624C63.2563 8.97469 63.6233 9.12391 64.0638 9.12391C64.677 9.12391 65.1434 8.80352 65.4629 8.16273L67.3672 9.15024C67.1255 9.7647 66.7152 10.2475 66.1365 10.5985C65.558 10.9409 64.8713 11.1121 64.0767 11.1121ZM71.6872 8.4524H70.8581V10.9936H68.3967V3.85719H70.8581V6.49055H71.739L73.462 3.85719H76.0659L73.7082 7.28056L76.2214 10.9936H73.3195L71.6872 8.4524ZM77.0374 3.85719H79.4859V7.59656L82.4266 3.85719H84.6937V10.9936H82.2323V7.24106L79.3175 10.9936H77.0374V3.85719ZM86.3487 3.85719H88.7971V7.59656L91.7378 3.85719H94.0049V10.9936H91.5435V7.24106L88.6287 10.9936H86.3487V3.85719ZM90.0149 3.17252C89.1858 3.17252 88.5726 2.99696 88.1753 2.64585C87.7867 2.28596 87.5881 1.73734 87.5794 1H89.1728C89.1815 1.30723 89.2505 1.53983 89.3801 1.69784C89.5096 1.84706 89.7169 1.92167 90.0019 1.92167C90.2869 1.92167 90.4985 1.84267 90.6367 1.68467C90.7835 1.52667 90.8569 1.29845 90.8569 1H92.4763C92.4763 1.73734 92.2733 2.28596 91.8674 2.64585C91.4701 2.99696 90.8526 3.17252 90.0149 3.17252ZM3.14799 14.9304L4.76733 17.4321L6.37372 14.9304H9.35331L6.37372 19.3413L9.6124 24.1603H6.59396L4.76733 21.4348L2.95367 24.1603H0L3.22572 19.4598L0.207276 14.9304H3.14799ZM17.5378 17.0239L14.5064 24.45C14.1522 25.3278 13.7204 25.9423 13.2109 26.2934C12.7013 26.6533 12.0795 26.8332 11.3454 26.8332C10.974 26.8332 10.5983 26.7718 10.2184 26.6489C9.84697 26.5348 9.5447 26.3812 9.31151 26.188L10.1665 24.4368C10.3047 24.5685 10.4688 24.6695 10.6588 24.7397C10.8574 24.8187 11.056 24.8582 11.2547 24.8582C11.4879 24.8582 11.6779 24.81 11.8247 24.7134C11.9802 24.6168 12.1098 24.4632 12.2134 24.2525L9.20787 17.0239H11.7341L13.457 21.3822L15.193 17.0239H17.5378ZM26.0711 22.159V25.635H23.791V24.1603H19.3735V25.635H17.0805V22.159H17.3396C17.7628 22.1503 18.0564 21.9176 18.2205 21.4612C18.3846 20.996 18.4839 20.3464 18.5185 19.5125L18.6091 17.0239H25.0995V22.159H26.0711ZM20.7337 19.6968C20.7078 20.3376 20.6603 20.8511 20.5912 21.2373C20.5222 21.6236 20.3926 21.9308 20.2026 22.159H22.6381V19.0121H20.7596L20.7337 19.6968ZM30.5878 24.2788C29.8364 24.2788 29.1585 24.1208 28.5539 23.8048C27.9494 23.4888 27.4744 23.05 27.1289 22.4882C26.792 21.9264 26.6236 21.29 26.6236 20.579C26.6236 19.8768 26.792 19.2448 27.1289 18.683C27.4744 18.1212 27.945 17.6867 28.5409 17.3794C29.1455 17.0634 29.8278 16.9054 30.5878 16.9054C31.3478 16.9054 32.0301 17.0634 32.6346 17.3794C33.2392 17.6867 33.7099 18.1212 34.0467 18.683C34.3835 19.236 34.5519 19.868 34.5519 20.579C34.5519 21.29 34.3835 21.9264 34.0467 22.4882C33.7099 23.05 33.2392 23.4888 32.6346 23.8048C32.0301 24.1208 31.3478 24.2788 30.5878 24.2788ZM30.5878 22.2907C31.0197 22.2907 31.3737 22.1415 31.6501 21.843C31.9265 21.5358 32.0646 21.1145 32.0646 20.579C32.0646 20.0523 31.9265 19.6398 31.6501 19.3413C31.3737 19.0429 31.0197 18.8936 30.5878 18.8936C30.156 18.8936 29.8019 19.0429 29.5255 19.3413C29.2491 19.6398 29.1109 20.0523 29.1109 20.579C29.1109 21.1145 29.2491 21.5358 29.5255 21.843C29.8019 22.1415 30.156 22.2907 30.5878 22.2907ZM42.7715 21.6192H42.046V24.1603H39.6235V21.6192H38.8851L37.6155 24.1603H34.7007L36.8123 20.4736L34.8562 17.0239H37.4601L38.8333 19.6573H39.6235V17.0239H42.046V19.6573H42.8104L44.1965 17.0239H46.8004L44.8313 20.4736L46.9559 24.1603H44.0411L42.7715 21.6192ZM54.7231 20.6053C54.7231 20.6229 54.7102 20.8291 54.6843 21.2242H49.5801C49.6837 21.5928 49.8824 21.8781 50.176 22.08C50.4784 22.2731 50.854 22.3697 51.3031 22.3697C51.6399 22.3697 51.9293 22.3215 52.171 22.2248C52.4216 22.1283 52.672 21.9703 52.9224 21.7508L54.2179 23.1202C53.5357 23.8927 52.5382 24.2788 51.2253 24.2788C50.4049 24.2788 49.6837 24.1208 49.0619 23.8048C48.4401 23.4888 47.9565 23.05 47.611 22.4882C47.2742 21.9264 47.1057 21.29 47.1057 20.579C47.1057 19.8768 47.2699 19.2491 47.598 18.6961C47.9348 18.1344 48.3969 17.6955 48.9842 17.3794C49.5715 17.0634 50.2322 16.9054 50.9662 16.9054C51.6658 16.9054 52.3006 17.0547 52.8706 17.3531C53.4406 17.6428 53.8897 18.0686 54.2179 18.6303C54.5547 19.1833 54.7231 19.8416 54.7231 20.6053ZM50.9792 18.683C50.5992 18.683 50.2796 18.7928 50.0206 19.0121C49.7701 19.2316 49.6104 19.5301 49.5412 19.9075H52.4172C52.3481 19.5301 52.184 19.2316 51.9249 19.0121C51.6745 18.7928 51.3593 18.683 50.9792 18.683ZM59.5477 24.2788C58.7704 24.2788 58.0752 24.1208 57.4619 23.8048C56.8488 23.4888 56.3695 23.05 56.024 22.4882C55.6872 21.9264 55.5187 21.29 55.5187 20.579C55.5187 19.868 55.6872 19.236 56.024 18.683C56.3695 18.1212 56.8488 17.6867 57.4619 17.3794C58.0752 17.0634 58.7704 16.9054 59.5477 16.9054C60.3423 16.9054 61.0289 17.0811 61.6075 17.4321C62.1861 17.7745 62.5964 18.2529 62.8382 18.8673L60.9338 19.8548C60.6143 19.2141 60.148 18.8936 59.5347 18.8936C59.0942 18.8936 58.7272 19.0429 58.4336 19.3413C58.1485 19.6398 58.006 20.0523 58.006 20.579C58.006 21.1145 58.1485 21.5358 58.4336 21.843C58.7272 22.1415 59.0942 22.2907 59.5347 22.2907C60.148 22.2907 60.6143 21.9703 60.9338 21.3295L62.8382 22.317C62.5964 22.9315 62.1861 23.4143 61.6075 23.7653C61.0289 24.1077 60.3423 24.2788 59.5477 24.2788ZM70.1631 19.0121H67.9089V24.1603H65.4605V19.0121H63.1934V17.0239H70.1631V19.0121ZM76.7779 20.421C77.5811 20.6931 77.9827 21.2549 77.9827 22.1063C77.9827 22.7471 77.7366 23.2518 77.2443 23.6205C76.752 23.9805 76.0266 24.1603 75.0679 24.1603H71.1167V17.0239H74.8865C75.802 17.0239 76.5103 17.1864 77.0111 17.5111C77.5207 17.8359 77.7754 18.2924 77.7754 18.8805C77.7754 19.2228 77.6892 19.5256 77.5164 19.789C77.3437 20.0523 77.0975 20.263 76.7779 20.421ZM73.319 19.8943H74.6663C75.2363 19.8943 75.5213 19.6793 75.5213 19.2491C75.5213 18.8366 75.2363 18.6303 74.6663 18.6303H73.319V19.8943ZM74.8477 22.5408C75.4436 22.5408 75.7416 22.3215 75.7416 21.8825C75.7416 21.4436 75.4523 21.2242 74.8736 21.2242H73.319V22.5408H74.8477ZM86.3382 20.6053C86.3382 20.6229 86.3253 20.8291 86.2994 21.2242H81.1952C81.2988 21.5928 81.4975 21.8781 81.7911 22.08C82.0935 22.2731 82.4691 22.3697 82.9182 22.3697C83.255 22.3697 83.5444 22.3215 83.7861 22.2248C84.0367 22.1283 84.2871 21.9703 84.5375 21.7508L85.833 23.1202C85.1508 23.8927 84.1533 24.2788 82.8404 24.2788C82.02 24.2788 81.2988 24.1208 80.677 23.8048C80.0552 23.4888 79.5716 23.05 79.2261 22.4882C78.8893 21.9264 78.7208 21.29 78.7208 20.579C78.7208 19.8768 78.885 19.2491 79.2131 18.6961C79.5499 18.1344 80.012 17.6955 80.5993 17.3794C81.1866 17.0634 81.8473 16.9054 82.5814 16.9054C83.2809 16.9054 83.9157 17.0547 84.4857 17.3531C85.0557 17.6428 85.5048 18.0686 85.833 18.6303C86.1698 19.1833 86.3382 19.8416 86.3382 20.6053ZM82.5943 18.683C82.2143 18.683 81.8948 18.7928 81.6357 19.0121C81.3852 19.2316 81.2255 19.5301 81.1563 19.9075H84.0323C83.9632 19.5301 83.7991 19.2316 83.54 19.0121C83.2896 18.7928 82.9744 18.683 82.5943 18.683ZM87.6391 17.0239H90.0875V19.6705H92.6137V17.0239H95.0751V24.1603H92.6137V21.6587H90.0875V24.1603H87.6391V17.0239ZM96.7352 17.0239H99.1836V19.6705H101.709V17.0239H104.171V24.1603H101.709V21.6587H99.1836V24.1603H96.7352V17.0239ZM109.847 19.236C110.772 19.2448 111.466 19.4554 111.933 19.868C112.399 20.2806 112.632 20.8686 112.632 21.6323C112.632 22.4311 112.36 23.0543 111.816 23.502C111.281 23.9497 110.521 24.1692 109.536 24.1603H105.831V17.0239H108.279V19.236H109.847ZM113.228 17.0239H115.677V24.1603H113.228V17.0239ZM109.29 22.4487C109.912 22.4487 110.223 22.1635 110.223 21.5928C110.223 21.312 110.145 21.1057 109.989 20.974C109.834 20.8423 109.601 20.7721 109.29 20.7633H108.279V22.4355L109.29 22.4487ZM117.344 17.0239H119.792V20.7633L122.733 17.0239H125V24.1603H122.539V20.4078L119.624 24.1603H117.344V17.0239ZM121.01 16.3393C120.181 16.3393 119.568 16.1637 119.17 15.8126C118.782 15.4527 118.583 14.9041 118.574 14.1668H120.168C120.177 14.474 120.246 14.7066 120.375 14.8646C120.505 15.0139 120.712 15.0884 120.997 15.0884C121.282 15.0884 121.493 15.0094 121.632 14.8514C121.778 14.6934 121.852 14.4652 121.852 14.1668H123.471C123.471 14.9041 123.268 15.4527 122.862 15.8126C122.465 16.1637 121.848 16.3393 121.01 16.3393ZM9.06831 37.3271L9.05535 32.4423L6.7235 36.4186H5.58349L3.25164 32.5476V37.3271H0.893876V28.1104H3.0055L6.19235 33.4298L9.30149 28.1104H11.4131L11.439 37.3271H9.06831ZM20.7132 30.1907L17.6818 37.6168C17.3276 38.4946 16.8958 39.1091 16.3863 39.4602C15.8767 39.8201 15.2549 40 14.5208 40C14.1494 40 13.7737 39.9386 13.3938 39.8157C13.0224 39.7016 12.7201 39.548 12.4869 39.3548L13.3419 37.6036C13.4801 37.7353 13.6442 37.8363 13.8342 37.9065C14.0328 37.9855 14.2314 38.025 14.4301 38.025C14.6633 38.025 14.8533 37.9768 15.0001 37.8801C15.1556 37.7836 15.2852 37.63 15.3888 37.4193L12.3833 30.1907H14.9095L16.6324 34.5489L18.3684 30.1907H20.7132ZM26.3214 33.6273C26.7273 33.7589 27.0382 33.9609 27.2541 34.2329C27.4786 34.4963 27.5909 34.8123 27.5909 35.181C27.5909 35.655 27.4268 36.0676 27.0987 36.4186C26.7791 36.761 26.3386 37.0243 25.7773 37.2086C25.2245 37.3843 24.6027 37.472 23.9118 37.472C22.72 37.472 21.6577 37.2658 20.7249 36.8531L21.3597 35.1678C22.1024 35.4838 22.9272 35.6418 23.8341 35.6418C24.2227 35.6418 24.5292 35.5848 24.7539 35.4706C24.987 35.3566 25.1036 35.1941 25.1036 34.9835C25.1036 34.7904 25.0345 34.6499 24.8964 34.5621C24.7581 34.4744 24.5466 34.4304 24.2616 34.4304H22.7459V32.9689H24.0414C24.6199 32.9689 24.9093 32.7891 24.9093 32.4291C24.9093 32.0517 24.525 31.8629 23.7563 31.8629C23.0913 31.8629 22.3486 32.0209 21.5281 32.3369L20.9452 30.6911C21.9642 30.261 22.9704 30.0459 23.9636 30.0459C24.9568 30.0459 25.7773 30.2259 26.425 30.5857C27.0728 30.9369 27.3966 31.4329 27.3966 32.0736C27.3966 32.3984 27.3016 32.6969 27.1116 32.9689C26.9216 33.2411 26.6582 33.4606 26.3214 33.6273ZM35.911 33.7721C35.911 33.7897 35.898 33.9959 35.8721 34.3909H30.7679C30.8716 34.7596 31.0702 35.0449 31.3639 35.2468C31.6661 35.4399 32.0418 35.5365 32.4909 35.5365C32.8277 35.5365 33.117 35.4882 33.3589 35.3916C33.6093 35.2951 33.8598 35.1371 34.1103 34.9176L35.4057 36.287C34.7234 37.0594 33.7259 37.4456 32.4132 37.4456C31.5928 37.4456 30.8716 37.2876 30.2498 36.9716C29.6279 36.6556 29.1443 36.2168 28.7988 35.655C28.462 35.0932 28.2936 34.4568 28.2936 33.7458C28.2936 33.0436 28.4577 32.4159 28.7859 31.8629C29.1227 31.3012 29.5848 30.8622 30.172 30.5462C30.7593 30.2302 31.42 30.0722 32.1541 30.0722C32.8537 30.0722 33.4884 30.2215 34.0584 30.5199C34.6284 30.8096 35.0776 31.2354 35.4057 31.7971C35.7426 32.3501 35.911 33.0084 35.911 33.7721ZM32.1671 31.8498C31.7871 31.8498 31.4675 31.9595 31.2084 32.1789C30.958 32.3984 30.7981 32.6969 30.7291 33.0743H33.605C33.536 32.6969 33.3718 32.3984 33.1127 32.1789C32.8623 31.9595 32.547 31.8498 32.1671 31.8498ZM37.2118 30.1907H39.6603V33.9301L42.601 30.1907H44.8681V37.3271H42.4067V33.5746L39.4919 37.3271H37.2118V30.1907ZM40.878 29.5061C40.0489 29.5061 39.4357 29.3305 39.0384 28.9794C38.6498 28.6195 38.4512 28.0709 38.4425 27.3335H40.036C40.0446 27.6408 40.1137 27.8734 40.2432 28.0314C40.3728 28.1807 40.58 28.2552 40.8651 28.2552C41.1501 28.2552 41.3616 28.1762 41.4998 28.0182C41.6466 27.8602 41.7201 27.632 41.7201 27.3335H43.3394C43.3394 28.0709 43.1364 28.6195 42.7305 28.9794C42.3332 29.3305 41.7158 29.5061 40.878 29.5061Z" fill="#111111"/>
<path d="M53.2167 40H52V28H53.2167V40ZM61.4756 35.7783C61.4756 36.1928 61.5493 36.4819 61.6968 36.6457C61.8442 36.8 62.1024 36.8771 62.4711 36.8771V37.1807C61.4756 37.1422 60.8396 37.1229 60.5631 37.1229C60.2589 37.1229 59.5952 37.1373 58.5721 37.1662L58.1849 37.1807V36.8771C58.6181 36.8771 58.9407 36.7903 59.1528 36.6168C59.374 36.4433 59.4846 36.1349 59.4846 35.6915V32.1637C59.4846 31.7011 59.4431 31.3638 59.3602 31.1517C59.2864 30.93 59.1574 30.7854 58.973 30.7179C58.7886 30.6409 58.5075 30.6023 58.1296 30.6023V30.2842C58.9316 30.265 59.5906 30.2023 60.1068 30.0962C60.623 29.9806 61.0792 29.7975 61.4756 29.5468V35.7783ZM67.4044 29.5035C68.1327 29.5035 68.7825 29.6625 69.354 29.9806C69.9255 30.2987 70.368 30.7469 70.6813 31.3252C71.004 31.9035 71.1652 32.5686 71.1652 33.3204C71.1652 34.0916 70.9993 34.7855 70.6675 35.4023C70.3449 36.0193 69.884 36.506 69.2848 36.8626C68.695 37.2096 68.0175 37.3831 67.2524 37.3831C66.5334 37.3831 65.8882 37.2241 65.3167 36.906C64.7452 36.5879 64.2982 36.1397 63.9755 35.5614C63.6529 34.9831 63.4916 34.3132 63.4916 33.5517C63.4916 32.7903 63.6529 32.1011 63.9755 31.4842C64.3074 30.8674 64.7683 30.3854 65.3582 30.0384C65.9481 29.6819 66.6302 29.5035 67.4044 29.5035ZM67.28 29.7637C66.9482 29.7637 66.6533 29.9132 66.3951 30.2119C66.1371 30.5107 65.9343 30.9445 65.7868 31.5131C65.6485 32.0722 65.5794 32.7373 65.5794 33.5083C65.5794 34.7325 65.7453 35.6433 66.0771 36.2409C66.4182 36.8289 66.8514 37.1229 67.3768 37.1229C67.7086 37.1229 67.999 36.9735 68.2479 36.6747C68.506 36.3663 68.7088 35.9325 68.8562 35.3734C69.0037 34.8048 69.0774 34.1349 69.0774 33.3638C69.0774 32.1397 68.9069 31.2336 68.5659 30.6456C68.234 30.0578 67.8054 29.7637 67.28 29.7637ZM76.316 29.5035C77.0442 29.5035 77.694 29.6625 78.2655 29.9806C78.837 30.2987 79.2795 30.7469 79.5928 31.3252C79.9155 31.9035 80.0767 32.5686 80.0767 33.3204C80.0767 34.0916 79.9108 34.7855 79.579 35.4023C79.2564 36.0193 78.7955 36.506 78.1963 36.8626C77.6065 37.2096 76.929 37.3831 76.1639 37.3831C75.4449 37.3831 74.7997 37.2241 74.2282 36.906C73.6567 36.5879 73.2097 36.1397 72.887 35.5614C72.5644 34.9831 72.4031 34.3132 72.4031 33.5517C72.4031 32.7903 72.5644 32.1011 72.887 31.4842C73.2188 30.8674 73.6798 30.3854 74.2697 30.0384C74.8596 29.6819 75.5417 29.5035 76.316 29.5035ZM76.1915 29.7637C75.8597 29.7637 75.5648 29.9132 75.3066 30.2119C75.0486 30.5107 74.8458 30.9445 74.6983 31.5131C74.56 32.0722 74.4909 32.7373 74.4909 33.5083C74.4909 34.7325 74.6568 35.6433 74.9886 36.2409C75.3297 36.8289 75.7629 37.1229 76.2883 37.1229C76.6201 37.1229 76.9105 36.9735 77.1594 36.6747C77.4175 36.3663 77.6203 35.9325 77.7677 35.3734C77.9152 34.8048 77.9889 34.1349 77.9889 33.3638C77.9889 32.1397 77.8184 31.2336 77.4774 30.6456C77.1455 30.0578 76.7169 29.7637 76.1915 29.7637ZM91.9388 30.024C91.6346 30.024 91.4226 30.1011 91.3027 30.2553C91.1921 30.3999 91.1368 30.6698 91.1368 31.0649V35.8361C91.1368 36.2313 91.1968 36.506 91.3166 36.6602C91.4364 36.8048 91.6438 36.8771 91.9388 36.8771V37.1807C91.0539 37.1422 90.464 37.1229 90.169 37.1229C89.9294 37.1229 89.3532 37.1373 88.4407 37.1662C88.367 37.1759 88.2702 37.1807 88.1503 37.1807V36.8771C88.5007 36.8771 88.7541 36.8048 88.9108 36.6602C89.0676 36.506 89.1458 36.2313 89.1458 35.8361V31.0649C89.1458 30.6698 89.0905 30.3999 88.9799 30.2553C88.8693 30.1011 88.6757 30.024 88.3992 30.024H88.2748C88.1089 30.024 87.9844 30.0578 87.9015 30.1252C87.8278 30.183 87.777 30.2794 87.7494 30.4143C87.7217 30.5493 87.6941 30.7662 87.6664 31.0649C87.5651 32.2313 87.459 33.1807 87.3484 33.9132C87.2471 34.6457 87.0904 35.3011 86.8783 35.8795C86.482 36.882 85.9474 37.3831 85.2745 37.3831C84.9242 37.3831 84.6155 37.2723 84.3481 37.0506C84.0808 36.8192 83.9471 36.4916 83.9471 36.0674C83.9471 35.7012 84.0486 35.4168 84.2513 35.2144C84.4541 35.0024 84.7168 34.8963 85.0394 34.8963C85.3528 34.8963 85.5972 34.9975 85.7722 35.1999C85.9566 35.3928 86.0487 35.6386 86.0487 35.9373C86.0487 36.4578 85.7538 36.8481 85.1639 37.1084C85.2192 37.1277 85.2791 37.1373 85.3436 37.1373C85.8413 37.1373 86.27 36.694 86.6294 35.8072C86.8323 35.2482 86.9936 34.5735 87.1134 33.783C87.2332 32.9831 87.33 32.077 87.4037 31.0649C87.4314 30.6795 87.3531 30.4095 87.1687 30.2553C86.9936 30.1011 86.7078 30.024 86.3114 30.024V29.7203C86.5143 29.7397 86.8046 29.7493 87.1825 29.7493L88.4683 29.7348C88.7357 29.7348 89.0629 29.7445 89.45 29.7637L90.2381 29.7782C90.487 29.7782 91.0539 29.7589 91.9388 29.7203V30.024ZM96.7282 36.1975C97.4841 36.1975 98.0924 35.8121 98.5533 35.0409L98.8022 35.1276C98.6178 35.7542 98.286 36.2892 97.8067 36.7325C97.3366 37.1662 96.7466 37.3831 96.0369 37.3831C95.0598 37.3831 94.2809 37.0602 93.7002 36.4144C93.1288 35.759 92.843 34.7951 92.843 33.5228C92.843 32.2216 93.1517 31.2289 93.7694 30.5444C94.387 29.8505 95.2073 29.5035 96.2304 29.5035C97.9633 29.5035 98.8298 30.5734 98.8298 32.7131H94.9446C94.9353 32.8577 94.9308 33.0843 94.9308 33.3927C94.9308 34.0288 95.0137 34.559 95.1796 34.9831C95.3548 35.4072 95.576 35.7156 95.8433 35.9084C96.1198 36.1012 96.4148 36.1975 96.7282 36.1975ZM96.1475 29.8071C95.8157 29.8071 95.5391 30.024 95.3179 30.4577C95.1059 30.8819 94.9723 31.542 94.917 32.4384H97.0877C97.1061 31.6771 97.0324 31.0505 96.8665 30.5589C96.7098 30.0578 96.4701 29.8071 96.1475 29.8071ZM107 29.7203C106.935 30.4722 106.903 31.1469 106.903 31.7445C106.903 32.1493 106.917 32.477 106.945 32.7276H106.627C106.323 30.9156 105.705 30.0095 104.774 30.0095H104.318V35.6915C104.318 36.1349 104.423 36.4433 104.636 36.6168C104.857 36.7903 105.183 36.8771 105.617 36.8771V37.1807L105.23 37.1662C104.235 37.1373 103.603 37.1229 103.336 37.1229C103.069 37.1229 102.423 37.1373 101.4 37.1662L101.027 37.1807V36.8771C101.479 36.8771 101.806 36.8048 102.009 36.6602C102.221 36.5156 102.327 36.2217 102.327 35.7783V30.0095H101.815C101.391 30.0095 101.027 30.2168 100.723 30.6312C100.428 31.0457 100.197 31.7445 100.031 32.7276H99.7134C99.7411 32.4963 99.7549 32.1686 99.7549 31.7445C99.7549 31.1661 99.7226 30.4915 99.6581 29.7203H101.124L101.967 29.7348C102.52 29.7541 102.967 29.7637 103.308 29.7637C103.649 29.7637 104.105 29.7541 104.677 29.7348L105.534 29.7203H107Z" fill="#111111"/>
</svg>
